<?xml version="1.0" encoding="UTF-8"?>
<svg width="128px" height="42px" viewBox="0 0 128 42" version="1.1" xmlns="http://www.w3.org/2000/svg" xmlns:xlink="http://www.w3.org/1999/xlink">
    <g stroke="none" stroke-width="1" fill="none" fill-rule="evenodd">
        <g>
            <path d="M67.2794118,7.00000622 C71.6149963,7.02772196 75.1213235,10.6573234 75.1213235,15.130688 C75.1213235,18.4042594 73.2436181,21.2259794 70.5373534,22.5149095 L74.677,28.8859443 L91.1637168,28.8864175 L91.1637612,28.8846237 C92.6903722,28.8307481 93.9115044,27.5700865 93.9115044,26.0228078 C93.9115044,24.4910018 92.7146727,23.2401094 91.209467,23.1629693 L91.1637612,23.1609919 L75.9317965,23.1591512 L75.9955736,23.1073664 C77.5642285,21.819216 78.7350087,20.0674089 79.3076419,18.0457557 L91.2654867,18.0456094 L91.2655271,18.0299278 L91.3024007,18.0258842 L91.3857379,18.0150045 L91.4500349,18.0049434 L91.512055,17.9938444 L91.573629,17.9814532 L91.6253682,17.9699699 L91.6873036,17.9549184 L91.7380616,17.9415073 L91.784227,17.9284554 L91.8189494,17.9180949 L91.8695895,17.9021367 L91.9458614,17.8761664 L92.0096372,17.8526238 L92.0803194,17.8245331 L92.1189836,17.808256 L92.1703116,17.785628 L92.2183443,17.7633757 L92.2575484,17.7444236 L92.3064146,17.7197826 L92.3393934,17.7024996 L92.4182583,17.6589673 L92.4843923,17.6199769 L92.5488465,17.5796906 L92.6010209,17.5453522 L92.6836562,17.4876348 L92.6836562,17.4876348 C92.7165953,17.4637833 92.7490252,17.4392662 92.7809158,17.4141117 L92.8283433,17.3759056 L92.870502,17.3405653 L92.9118899,17.3045476 L92.9383612,17.2807937 L92.9598769,17.2610597 L93.0131508,17.2104778 L93.0363718,17.1876298 L93.079477,17.1438565 L93.1032283,17.1189476 L93.1439069,17.07491 L93.1766963,17.0380801 L93.1766963,17.0380801 L93.24047,16.9627606 L93.2729612,16.9223594 L93.3097489,16.874812 L93.3284554,16.8498525 L93.3721991,16.7892692 L93.3918481,16.7609761 L93.4321781,16.7006132 L93.4686759,16.6430824 L93.4872768,16.6125964 L93.5230086,16.5516009 L93.548678,16.5056162 C93.5606039,16.4837988 93.5722646,16.4618143 93.583641,16.4396956 L93.6128605,16.3813134 L93.6408525,16.3221553 L93.6630907,16.2725855 L93.6761866,16.2421991 L93.6984045,16.1883743 L93.7115586,16.1550106 L93.7298135,16.1066193 L93.7424009,16.071668 L93.7633308,16.0102433 L93.7844981,15.9431243 L93.80512,15.8716757 L93.8279835,15.7832228 L93.8365877,15.7466636 L93.8456114,15.7058778 L93.8553879,15.6582547 L93.8639093,15.6130997 L93.8720584,15.5658225 L93.883619,15.4891062 L93.89144,15.427413 L93.898021,15.3650787 L93.9009452,15.332394 L93.9031149,15.3050502 L93.9081735,15.2218941 C93.9103858,15.1747846 93.9115044,15.1273875 93.9115044,15.0797279 C93.9115044,15.0320682 93.9103858,14.9846712 93.9081742,14.9375717 L93.9040402,14.8671502 L93.8980211,14.7943777 L93.8924279,14.7406537 L93.8836187,14.6703473 L93.8745491,14.6090686 L93.8694337,14.5778992 L93.8575688,14.5123993 L93.841362,14.4340381 L93.825731,14.3669922 L93.7972004,14.2595344 L93.7808704,14.2044226 L93.7527898,14.1177246 L93.7298138,14.0528378 L93.7167857,14.018042 L93.6984059,13.9710849 L93.6630903,13.8868693 L93.645279,13.8469752 L93.6123536,13.7771012 L93.5825909,13.7177204 L93.5486745,13.6538333 L93.5230034,13.607846 L93.4965188,13.5623195 L93.4686775,13.5163762 L93.4496758,13.4860601 L93.4125387,13.4290489 L93.3722029,13.370192 L93.3444984,13.3314517 L93.3073487,13.2814803 L93.2859106,13.2536079 L93.2517904,13.2106085 L93.2303307,13.1843772 L93.1872644,13.1335115 L93.1439305,13.0845718 L93.1032695,13.0405519 L93.0806329,13.0167983 L93.0470804,12.9825328 L93.0131523,12.9489795 L92.9737106,12.9112917 L92.936799,12.8772443 L92.9037819,12.847746 L92.85585,12.8064571 L92.7809261,12.7453526 C92.749024,12.7201887 92.7165916,12.6956698 92.6836453,12.6718131 C92.6564471,12.6521189 92.6289019,12.6328786 92.6010165,12.6141007 L92.5589341,12.5862815 L92.5309253,12.5683311 L92.4844004,12.5394838 L92.4182604,12.5004897 L92.3468111,12.4609172 L92.306426,12.4396791 L92.2575577,12.4150367 L92.1943982,12.3848547 L92.1410157,12.3607688 L92.1115248,12.3480088 L92.0752782,12.3328483 L92.0413953,12.3191899 L91.9838397,12.2971056 L91.9165998,12.2730478 L91.8368677,12.2468917 L91.7842324,12.2310022 L91.7492266,12.22103 L91.7094889,12.2102789 L91.6253682,12.1894858 L91.5906261,12.1816664 L91.5120608,12.1656123 L91.4500927,12.1545221 L91.3931555,12.1455375 L91.3480878,12.1392358 L91.3004759,12.1333489 L91.2655271,12.1295279 L91.2654867,12.1138464 L79.2337005,12.1138193 C78.5968594,10.061077 77.3416249,8.28291522 75.6873555,7.00000622 L91.4690265,7.00000622 L91.5435215,7.00127844 C95.6730372,7.06856242 99,10.4535908 99,14.6195049 C99,16.9872694 97.9252577,19.1027766 96.2392359,20.4999914 C97.9252443,21.8974609 99,24.0129797 99,26.380759 C99,30.5297522 95.7000088,33.9041904 91.5937043,33.9981652 L91.4690265,34.0000062 L71.3855811,34.0000062 L64.4605774,23.1593017 L56.8005257,23.1591994 L59.3298897,18.0454608 L67.9742647,18.0454608 L67.9743504,18.0385118 C69.4715515,17.9333942 70.6544118,16.6487948 70.6544118,15.0795517 C70.6544118,13.5857529 69.582554,12.3498862 68.1880166,12.143832 L67.9743504,12.1205915 L67.9742647,12.1136426 L53.8639706,12.1136426 L53.8639706,34.0000062 L49,34.0000062 L49.0003635,29.0009847 C50.8838752,26.4938355 52,23.3772633 52,20.0000062 C52,16.6227491 50.8838752,13.5061769 49.0003635,10.9990277 L49,7.00000622 L67.2794118,7.00000622 Z M29.5117585,6.99994432 C27.3596225,8.2422859 25.5448062,10.003694 24.2383873,12.1130911 L11.9354839,12.1136426 C11.1307688,12.1532813 10.445536,12.5282327 9.93134142,13.0468009 C9.41908428,13.5634152 9.13323983,14.2040609 9.13323983,14.9772789 C9.13323983,15.7497624 9.41796936,16.5123001 9.92183564,17.0294783 C10.4241396,17.5450529 11.1615012,17.9043795 11.9354839,17.943188 L20.2465627,17.9436492 L20.3904029,17.9549604 L20.6463148,17.9813104 L20.9627955,18.0250854 L21.1277917,18.0528147 L21.4072757,18.1076789 L21.5425197,18.1377982 L21.7718764,18.1943607 L21.9996447,18.2576047 L22.0968218,18.2863096 C22.0328612,18.8486921 22,19.4205116 22,20.0000062 C22,24.1258523 23.6657528,27.8626409 26.3614212,30.5745348 L26.1942536,30.8008448 L25.7392961,31.3417869 L25.6182252,31.4705551 L25.4175278,31.6726394 L25.3161124,31.7695553 L25.1410355,31.929355 L25.0155843,32.0382745 L24.8671404,32.1615922 L24.6242143,32.3510377 C23.3135641,33.3346617 21.6910129,33.9389313 19.9271903,33.9956364 L19.6598137,34.0000062 L3.63797881e-12,34.0000062 L4.67040673,28.8863699 L19.200561,28.8863699 C20.0052783,28.8467324 20.7233949,28.4717809 21.2375907,27.9532115 C21.7498478,27.4365972 22.1065919,26.7959515 22.1065919,26.0227335 C22.1065919,25.2594273 21.7582954,24.5043704 21.2649671,23.9890386 C20.774434,23.4766268 20.1668433,23.1101824 19.4081346,23.0568244 L11.312763,23.0568244 C9.49392691,23.0289697 7.890523,22.4380618 6.54471782,21.4280547 L6.3017917,21.2386091 L6.15334778,21.1152915 L5.9345424,20.9223105 L5.75771172,20.7557969 L5.62931713,20.6284296 L5.44771486,20.4381492 L5.35083308,20.3312942 C5.30361262,20.2783411 5.25708978,20.2247739 5.21128108,20.1706096 L4.85459479,19.7174336 L4.67872031,19.4663132 L4.5403587,19.2537086 L4.41879418,19.0542098 L4.18957446,18.6368034 L4.01263701,18.2642496 L3.94471465,18.1097078 L3.82656211,17.8111832 L3.74067379,17.5715582 L3.68364827,17.3960909 C3.65353428,17.2996007 3.62521829,17.2023397 3.59874974,17.1043904 L3.55925008,16.9529568 L3.45947152,16.4941833 L3.42079752,16.2676643 L3.40704563,16.176289 C3.38005612,15.9895323 3.3596038,15.8007114 3.34593639,15.6101239 L3.32556319,15.0675466 L3.3298291,14.7739596 L3.33489865,14.6499163 L3.34662995,14.4636941 L3.37591231,14.1426722 C3.38152035,14.0928039 3.3875192,14.0440606 3.39394937,13.9954032 L3.4164509,13.8370437 L3.444077,13.668209 L3.50105693,13.3756805 L3.53097975,13.2420849 L3.59265794,12.9951735 L3.62680506,12.8713162 L3.71444349,12.5843249 L3.81249346,12.3019827 L3.87378709,12.1411912 L3.93862233,11.9816282 L4.01061284,11.8152692 L4.06817395,11.6892216 L4.16804073,11.4833577 L4.22812497,11.366367 L4.38223559,11.0859402 L4.52806247,10.8429023 L4.67890894,10.6103762 L4.88027459,10.3249766 L5.03963327,10.1163221 L5.14815619,9.98187705 L5.25627331,9.85367961 L5.3867421,9.7057338 L5.57690436,9.50240927 L5.75697103,9.3220877 C5.93573237,9.14858087 6.12260301,8.9830985 6.31707694,8.82615702 L6.57827363,8.62378452 L6.82165652,8.44985601 L7.0886673,8.27395976 L7.19944859,8.20517954 L7.41336362,8.07909726 L7.6313057,7.95936651 L7.95062781,7.79915366 L8.24162248,7.66783497 L8.38705622,7.60707935 L8.77128093,7.46207325 L9.02077571,7.37964029 L9.32749817,7.28998262 L9.53345001,7.2368863 L9.75806346,7.18543434 L10.0411404,7.12983158 L10.340315,7.0820515 L10.5182676,7.05889337 L10.6668876,7.04250369 L10.9180003,7.02093284 L11.221649,7.00500074 L11.367525,7.00122395 L29.5117585,6.99994432 Z M113.728383,7.00000622 C115.375458,7.00000622 116.863912,7.98198977 117.512014,9.49619539 L117.512014,9.49619539 L128,34.0000062 L122.011278,34.0000062 L113.550752,14.9772789 L104.988722,34.0000062 L99,34.0000062 L109.909391,9.48076181 C110.580641,7.97210248 112.077132,7.00000622 113.728383,7.00000622 Z" id="Combined-Shape" fill="#1E68ED"></path>
            <circle fill="#9EC713" transform="translate(113.500000, 29.500006) rotate(-3.000000) translate(-113.500000, -29.500006) " cx="113.5" cy="29.5000062" r="3.5"></circle>
            <path d="M46.9959233,2.843661 C47.0829849,4.49822629 45.8122417,5.9095146 44.157639,5.99586175 C44.0530377,6.00132047 43.9494063,6.00135329 43.8470184,5.99620641 L41.3284926,12.113559 C43.9663076,13.5664954 45.816855,16.3079541 45.9879608,19.534612 C46.1559921,22.7033317 44.6637317,25.5739558 42.2710544,27.3025644 L44.630032,32.0229021 C46.2055137,31.8264743 47.6754205,32.8987065 47.9545385,34.4797152 C48.2425919,36.1113374 47.1533134,37.6669709 45.5215669,37.9543197 C43.8898204,38.2416685 42.333515,37.1519195 42.0454615,35.5202973 C41.8721024,34.5383381 42.1976119,33.583902 42.8400044,32.9168885 L40.5254477,28.2873607 C39.5839677,28.6868965 38.5576251,28.9314042 37.4765867,28.9873805 C35.6490847,29.0820074 33.9200514,28.6246548 32.451548,27.7612444 L26.3273721,36.4374967 C26.7150582,36.9677188 26.958161,37.6128605 26.9952439,38.3176035 C27.0968157,40.2479296 25.614282,41.8944327 23.6839122,41.995171 C21.7535423,42.0959092 20.1063281,40.6127351 20.0047561,38.682409 C19.9031843,36.7520828 21.385718,35.1055798 23.3160878,35.0048414 C23.8154252,34.978783 24.295816,35.0587081 24.7354083,35.2249411 L30.8499198,26.5632315 C29.2113011,25.0282931 28.140244,22.8830442 28.0120392,20.4654004 C27.7488294,15.5018116 31.5595007,11.2696638 36.5234133,11.012632 C37.5497477,10.959489 38.5450251,11.0804405 39.4805394,11.3496394 L41.9989067,5.23422633 C41.4249209,4.72011303 41.0477568,3.98647047 41.0040767,3.15635143 C40.9170151,1.50178615 42.1877583,0.0904978413 43.842361,0.00415069049 C45.4969637,-0.0821963106 46.9088617,1.18909573 46.9959233,2.843661 Z" id="Path-Copy" fill="#9EC713"></path>
        </g>
    </g>
</svg>
